# xmcd
#
# Track frame offsets:
#	150
#	16927
#	33205
#	48370
#	68847
#	85167
#	97776
#	112779
#	126259
#	140271
#	158540
#	176840
#
# Disc length: 2629 seconds
#
# Revision: 0
# Processed by: cddbd v1.5.1PL2 Copyright (c) Steve Scherf et al.
# Submitted via: audiograbber 1.83.01
#
DISCID=880a430c
DTITLE=сожиа аябамитг - йоййимг йкыстг
DYEAR=1998
DGENRE=каийа
TTITLE0=осо с' ацапгса
TTITLE1=йоййимг йкыстг  (ма лоу кееи)
TTITLE2=ока та еида
TTITLE3=дем то суфгты
TTITLE4=еявесаи йаи йкаис
TTITLE5=ауто поу соу кеы ецы
TTITLE6=лгм амабеис то тсицаяо
TTITLE7=соу ликаы еккгмийа
TTITLE8=еимаи поу хекы ма пеямы
TTITLE9=йуяиайг лесглеяи
TTITLE10=леиме тыяа ломос соу
TTITLE11=сто пкаи соу
EXTD=
EXTT0=
EXTT1=
EXTT2=
EXTT3=
EXTT4=
EXTT5=
EXTT6=
EXTT7=
EXTT8=
EXTT9=
EXTT10=
EXTT11=
PLAYORDER=
